<svg xmlns="http://www.w3.org/2000/svg" xmlns:xlink="http://www.w3.org/1999/xlink" width="500" zoomAndPan="magnify" viewBox="0 0 375 374.999991" height="500" preserveAspectRatio="xMidYMid meet" version="1.2"><defs><clipPath id="acec372e01"><path d="M 10.492188 112.5 L 145.492188 112.5 L 145.492188 262.5 L 10.492188 262.5 Z M 10.492188 112.5 "/></clipPath><clipPath id="9d8fd40690"><path d="M 229.507812 112.5 L 364.507812 112.5 L 364.507812 262.5 L 229.507812 262.5 Z M 229.507812 112.5 "/></clipPath><clipPath id="ed898c2a91"><path d="M 0.507812 0.5 L 135.507812 0.5 L 135.507812 150.5 L 0.507812 150.5 Z M 0.507812 0.5 "/></clipPath><clipPath id="c0163d4277"><rect x="0" width="136" y="0" height="151"/></clipPath><clipPath id="5f7af73431"><path d="M 156.09375 112.5 L 219.09375 112.5 L 219.09375 262.5 L 156.09375 262.5 Z M 156.09375 112.5 "/></clipPath></defs><g id="9eecd83bc9"><g clip-rule="nonzero" clip-path="url(#acec372e01)"><path style=" stroke:none;fill-rule:nonzero;fill:#000000;fill-opacity:1;" d="M 122.992188 218.511719 C 117.289062 218.511719 112.152344 220.726562 108.253906 224.289062 L 54.816406 193.125 C 55.226562 191.4375 55.492188 189.675781 55.492188 187.875 C 55.492188 186.074219 55.226562 184.3125 54.816406 182.625 L 107.691406 151.761719 C 111.703125 155.511719 117.066406 157.835938 122.992188 157.835938 C 135.402344 157.835938 145.492188 147.75 145.492188 135.335938 C 145.492188 122.925781 135.402344 112.835938 122.992188 112.835938 C 110.578125 112.835938 100.492188 122.925781 100.492188 135.335938 C 100.492188 137.136719 100.753906 138.898438 101.164062 140.585938 L 48.289062 171.449219 C 44.277344 167.699219 38.914062 165.375 32.992188 165.375 C 20.578125 165.375 10.492188 175.460938 10.492188 187.875 C 10.492188 200.289062 20.578125 210.375 32.992188 210.375 C 38.914062 210.375 44.277344 208.050781 48.289062 204.300781 L 101.726562 235.460938 C 101.351562 237.039062 101.128906 238.6875 101.128906 240.375 C 101.128906 252.449219 110.914062 262.238281 122.992188 262.238281 C 135.066406 262.238281 144.851562 252.449219 144.851562 240.375 C 144.851562 228.300781 135.066406 218.511719 122.992188 218.511719 Z M 122.992188 218.511719 "/></g><g clip-rule="nonzero" clip-path="url(#9d8fd40690)"><g transform="matrix(1,0,0,1,229,112)"><g clip-path="url(#c0163d4277)"><g clip-rule="nonzero" clip-path="url(#ed898c2a91)"><path style=" stroke:none;fill-rule:nonzero;fill:#000000;fill-opacity:1;" d="M 23.007812 106.511719 C 28.710938 106.511719 33.847656 108.726562 37.746094 112.289062 L 91.183594 81.125 C 90.773438 79.4375 90.507812 77.675781 90.507812 75.875 C 90.507812 74.074219 90.773438 72.3125 91.183594 70.625 L 38.308594 39.761719 C 34.296875 43.511719 28.933594 45.835938 23.007812 45.835938 C 10.597656 45.835938 0.507812 35.75 0.507812 23.335938 C 0.507812 10.925781 10.597656 0.835938 23.007812 0.835938 C 35.421875 0.835938 45.507812 10.925781 45.507812 23.335938 C 45.507812 25.136719 45.246094 26.898438 44.835938 28.585938 L 97.710938 59.449219 C 101.722656 55.699219 107.085938 53.375 113.007812 53.375 C 125.421875 53.375 135.507812 63.460938 135.507812 75.875 C 135.507812 88.289062 125.421875 98.375 113.007812 98.375 C 107.085938 98.375 101.722656 96.050781 97.710938 92.300781 L 44.273438 123.460938 C 44.648438 125.039062 44.871094 126.6875 44.871094 128.375 C 44.871094 140.449219 35.085938 150.238281 23.007812 150.238281 C 10.933594 150.238281 1.148438 140.449219 1.148438 128.375 C 1.148438 116.300781 10.933594 106.511719 23.007812 106.511719 Z M 23.007812 106.511719 "/></g></g></g></g><g clip-rule="nonzero" clip-path="url(#5f7af73431)"><path style=" stroke:none;fill-rule:nonzero;fill:#000000;fill-opacity:1;" d="M 219.085938 112.554688 L 178.609375 262.488281 L 156.101562 262.488281 L 196.578125 112.554688 Z M 219.085938 112.554688 "/></g></g></svg>